<svg xmlns="http://www.w3.org/2000/svg" width="40" height="40" viewBox="0 0 32 32">
  <defs>
    <radialGradient id="tire" cx="38%" cy="30%" r="72%">
      <stop offset="0" stop-color="#4b4b4d"/>
      <stop offset=".38" stop-color="#171719"/>
      <stop offset="1" stop-color="#020203"/>
    </radialGradient>
    <radialGradient id="rim" cx="35%" cy="28%" r="75%">
      <stop offset="0" stop-color="#fff"/>
      <stop offset=".22" stop-color="#d9dde0"/>
      <stop offset=".55" stop-color="#62676b"/>
      <stop offset=".78" stop-color="#f3f4f5"/>
      <stop offset="1" stop-color="#333639"/>
    </radialGradient>
    <linearGradient id="spoke" x1="0" y1="0" x2="1" y2="1">
      <stop stop-color="#f9fafb"/>
      <stop offset=".48" stop-color="#777d82"/>
      <stop offset="1" stop-color="#202326"/>
    </linearGradient>
  </defs>

  <!-- Neumático de perfil bajo -->
  <circle cx="16" cy="16" r="15" fill="url(#tire)" stroke="#050506" stroke-width="1"/>
  <circle cx="16" cy="16" r="12.4" fill="none" stroke="#66686a" stroke-width=".65" opacity=".7"/>
  <circle cx="16" cy="16" r="11.2" fill="#111315" stroke="url(#rim)" stroke-width="2.2"/>
  <circle cx="16" cy="16" r="8.9" fill="#181a1c" stroke="#8d9296" stroke-width=".45"/>

  <!-- Rin multirradio deportivo -->
  <g fill="url(#spoke)" stroke="#16181a" stroke-width=".22" stroke-linejoin="round">
    <path d="M15.15 15.1 13.7 7.2l1.25-.2 1.5 7.9z"/>
    <path d="M16.05 14.9 17.2 7l1.24.24-1.18 7.91z"/>
    <path d="m16.75 15.15 6.45-4.75.72 1.04-6.47 4.72z"/>
    <path d="m17.05 15.9 7.72-2.1.3 1.22-7.75 2.08z"/>
    <path d="m17.1 16.75 6.8 4.2-.68 1.06-6.78-4.23z"/>
    <path d="m16.45 17.22 2.65 7.55-1.2.4-2.61-7.57z"/>
    <path d="m15.58 17.25-.2 8-1.26-.05.24-8z"/>
    <path d="m14.85 16.83-5.08 6.18-.97-.82 5.12-6.14z"/>
    <path d="m14.67 16-7.78 1.87-.28-1.23 7.8-1.83z"/>
    <path d="m15.02 15.3-6.2-5.08.82-.97 6.16 5.12z"/>
  </g>

  <!-- Centro y tornillería -->
  <circle cx="16" cy="16" r="3.25" fill="url(#rim)" stroke="#282b2e" stroke-width=".65"/>
  <g fill="#25282a">
    <circle cx="16" cy="13.85" r=".48"/>
    <circle cx="18.05" cy="15.34" r=".48"/>
    <circle cx="17.27" cy="18.05" r=".48"/>
    <circle cx="14.73" cy="18.05" r=".48"/>
    <circle cx="13.95" cy="15.34" r=".48"/>
  </g>
  <circle cx="16" cy="16" r="1.28" fill="#a71920" stroke="#f0b4b4" stroke-width=".35"/>

  <!-- Reflejo de acabado brillante -->
  <path d="M6.2 11.2A11.5 11.5 0 0 1 15 4.55" fill="none" stroke="#fff" stroke-width="1.15" stroke-linecap="round" opacity=".72"/>
  <path d="M7.5 9.2A12.6 12.6 0 0 1 10 6.8" fill="none" stroke="#fff" stroke-width=".55" stroke-linecap="round" opacity=".9"/>
</svg>
